<svg width="46" height="46" viewBox="0 0 46 46" fill="none" xmlns="http://www.w3.org/2000/svg">
<path d="M23 46C10.2975 46 2.25409e-06 35.7026 2.80934e-06 23C3.36458e-06 10.2974 10.2975 -1.56061e-06 23 -1.00536e-06C35.7025 -4.50116e-07 46 10.2975 46 23C46 35.7026 35.7025 46 23 46Z" fill="white"/>
<path fill-rule="evenodd" clip-rule="evenodd" d="M35.7071 19.2929C36.0976 19.6834 36.0976 20.3166 35.7071 20.7071L23.7071 32.7071C23.5196 32.8946 23.2652 33 23 33C22.7348 33 22.4804 32.8946 22.2929 32.7071L10.2929 20.7071C9.90237 20.3166 9.90237 19.6834 10.2929 19.2929C10.6834 18.9024 11.3166 18.9024 11.7071 19.2929L23 30.5858L34.2929 19.2929C34.6834 18.9024 35.3166 18.9024 35.7071 19.2929Z" fill="black"/>
</svg>
